<mxfile host="app.diagrams.net" modified="2024-01-10T19:16:31.205Z" agent="Mozilla/5.0 (Windows NT 10.0; Win64; x64) AppleWebKit/537.36 (KHTML, like Gecko) Chrome/120.0.0.0 Safari/537.36" etag="GyQ1_GBbc08IFNP_qZxU" version="22.1.18" type="github">
  <diagram name="Page-1" id="2c4490ee-f0b8-94ab-5012-d5dc3445f7a3">
    <mxGraphModel dx="737" dy="298" grid="0" gridSize="10" guides="1" tooltips="1" connect="0" arrows="1" fold="1" page="1" pageScale="1.5" pageWidth="1169" pageHeight="826" background="none" math="0" shadow="0">
      <root>
        <mxCell id="0" style=";html=1;" />
        <mxCell id="1" style=";html=1;" parent="0" />
        <mxCell id="VFoh39alzI0I0gOJWxa4-1" value="" style="childLayout=tableLayout;recursiveResize=0;shadow=0;fillColor=none;" parent="1" vertex="1">
          <mxGeometry x="335" y="510" width="314" height="231.41" as="geometry" />
        </mxCell>
        <mxCell id="VFoh39alzI0I0gOJWxa4-2" value="" style="shape=tableRow;horizontal=0;startSize=0;swimlaneHead=0;swimlaneBody=0;top=0;left=0;bottom=0;right=0;dropTarget=0;collapsible=0;recursiveResize=0;expand=0;fontStyle=0;fillColor=none;strokeColor=inherit;" parent="VFoh39alzI0I0gOJWxa4-1" vertex="1">
          <mxGeometry width="314" height="62" as="geometry" />
        </mxCell>
        <mxCell id="VFoh39alzI0I0gOJWxa4-4" value="&lt;font style=&quot;font-size: 18px;&quot; face=&quot;CMU Serif&quot;&gt;&lt;b&gt;Navaho Character&lt;/b&gt;&lt;/font&gt;" style="connectable=0;recursiveResize=0;strokeColor=inherit;fillColor=none;align=center;whiteSpace=wrap;html=1;" parent="VFoh39alzI0I0gOJWxa4-2" vertex="1">
          <mxGeometry width="104" height="62" as="geometry">
            <mxRectangle width="104" height="62" as="alternateBounds" />
          </mxGeometry>
        </mxCell>
        <mxCell id="VFoh39alzI0I0gOJWxa4-5" value="&lt;font style=&quot;font-size: 18px;&quot; face=&quot;CMU Serif&quot;&gt;&lt;b&gt;UTF-8 Encoding&lt;/b&gt;&lt;/font&gt;" style="connectable=0;recursiveResize=0;strokeColor=inherit;fillColor=none;align=center;whiteSpace=wrap;html=1;" parent="VFoh39alzI0I0gOJWxa4-2" vertex="1">
          <mxGeometry x="104" width="210" height="62" as="geometry">
            <mxRectangle width="210" height="62" as="alternateBounds" />
          </mxGeometry>
        </mxCell>
        <mxCell id="VFoh39alzI0I0gOJWxa4-6" style="shape=tableRow;horizontal=0;startSize=0;swimlaneHead=0;swimlaneBody=0;top=0;left=0;bottom=0;right=0;dropTarget=0;collapsible=0;recursiveResize=0;expand=0;fontStyle=0;fillColor=none;strokeColor=inherit;" parent="VFoh39alzI0I0gOJWxa4-1" vertex="1">
          <mxGeometry y="62" width="314" height="30" as="geometry" />
        </mxCell>
        <mxCell id="VFoh39alzI0I0gOJWxa4-8" value="&lt;font style=&quot;font-size: 14px;&quot; face=&quot;CMU Serif&quot;&gt;A&lt;/font&gt;" style="connectable=0;recursiveResize=0;strokeColor=inherit;fillColor=none;align=center;whiteSpace=wrap;html=1;" parent="VFoh39alzI0I0gOJWxa4-6" vertex="1">
          <mxGeometry width="104" height="30" as="geometry">
            <mxRectangle width="104" height="30" as="alternateBounds" />
          </mxGeometry>
        </mxCell>
        <mxCell id="VFoh39alzI0I0gOJWxa4-9" value="&lt;font style=&quot;font-size: 14px;&quot; face=&quot;CMU Serif&quot;&gt;U+0041&lt;/font&gt;" style="connectable=0;recursiveResize=0;strokeColor=inherit;fillColor=none;align=center;whiteSpace=wrap;html=1;" parent="VFoh39alzI0I0gOJWxa4-6" vertex="1">
          <mxGeometry x="104" width="210" height="30" as="geometry">
            <mxRectangle width="210" height="30" as="alternateBounds" />
          </mxGeometry>
        </mxCell>
        <mxCell id="VFoh39alzI0I0gOJWxa4-10" style="shape=tableRow;horizontal=0;startSize=0;swimlaneHead=0;swimlaneBody=0;top=0;left=0;bottom=0;right=0;dropTarget=0;collapsible=0;recursiveResize=0;expand=0;fontStyle=0;fillColor=none;strokeColor=inherit;" parent="VFoh39alzI0I0gOJWxa4-1" vertex="1">
          <mxGeometry y="92" width="314" height="28" as="geometry" />
        </mxCell>
        <mxCell id="VFoh39alzI0I0gOJWxa4-12" value="&lt;font style=&quot;font-size: 14px;&quot; face=&quot;CMU Serif&quot;&gt;B&lt;/font&gt;" style="connectable=0;recursiveResize=0;strokeColor=inherit;fillColor=none;align=center;whiteSpace=wrap;html=1;" parent="VFoh39alzI0I0gOJWxa4-10" vertex="1">
          <mxGeometry width="104" height="28" as="geometry">
            <mxRectangle width="104" height="28" as="alternateBounds" />
          </mxGeometry>
        </mxCell>
        <mxCell id="VFoh39alzI0I0gOJWxa4-13" value="&lt;font style=&quot;font-size: 14px;&quot; face=&quot;CMU Serif&quot;&gt;U+0042&lt;/font&gt;" style="connectable=0;recursiveResize=0;strokeColor=inherit;fillColor=none;align=center;whiteSpace=wrap;html=1;" parent="VFoh39alzI0I0gOJWxa4-10" vertex="1">
          <mxGeometry x="104" width="210" height="28" as="geometry">
            <mxRectangle width="210" height="28" as="alternateBounds" />
          </mxGeometry>
        </mxCell>
        <mxCell id="VFoh39alzI0I0gOJWxa4-23" style="shape=tableRow;horizontal=0;startSize=0;swimlaneHead=0;swimlaneBody=0;top=0;left=0;bottom=0;right=0;dropTarget=0;collapsible=0;recursiveResize=0;expand=0;fontStyle=0;fillColor=none;strokeColor=inherit;" parent="VFoh39alzI0I0gOJWxa4-1" vertex="1">
          <mxGeometry y="120" width="314" height="28" as="geometry" />
        </mxCell>
        <mxCell id="VFoh39alzI0I0gOJWxa4-24" value="&lt;font style=&quot;font-size: 14px;&quot; face=&quot;CMU Serif&quot;&gt;Ch&#39;&lt;/font&gt;" style="connectable=0;recursiveResize=0;strokeColor=inherit;fillColor=none;align=center;whiteSpace=wrap;html=1;" parent="VFoh39alzI0I0gOJWxa4-23" vertex="1">
          <mxGeometry width="104" height="28" as="geometry">
            <mxRectangle width="104" height="28" as="alternateBounds" />
          </mxGeometry>
        </mxCell>
        <mxCell id="VFoh39alzI0I0gOJWxa4-25" value="&lt;font face=&quot;CMU Serif&quot; style=&quot;&quot;&gt;&lt;font style=&quot;font-size: 14px;&quot;&gt;&lt;font style=&quot;&quot;&gt;(U+0043)+(U+0068)+&lt;/font&gt;(U+0027)&lt;/font&gt;&lt;br&gt;&lt;/font&gt;" style="connectable=0;recursiveResize=0;strokeColor=inherit;fillColor=none;align=center;whiteSpace=wrap;html=1;" parent="VFoh39alzI0I0gOJWxa4-23" vertex="1">
          <mxGeometry x="104" width="210" height="28" as="geometry">
            <mxRectangle width="210" height="28" as="alternateBounds" />
          </mxGeometry>
        </mxCell>
        <mxCell id="VFoh39alzI0I0gOJWxa4-20" style="shape=tableRow;horizontal=0;startSize=0;swimlaneHead=0;swimlaneBody=0;top=0;left=0;bottom=0;right=0;dropTarget=0;collapsible=0;recursiveResize=0;expand=0;fontStyle=0;fillColor=none;strokeColor=inherit;" parent="VFoh39alzI0I0gOJWxa4-1" vertex="1">
          <mxGeometry y="148" width="314" height="27" as="geometry" />
        </mxCell>
        <mxCell id="VFoh39alzI0I0gOJWxa4-21" value="&lt;font style=&quot;font-size: 14px;&quot; face=&quot;CMU Serif&quot;&gt;D&lt;/font&gt;" style="connectable=0;recursiveResize=0;strokeColor=inherit;fillColor=none;align=center;whiteSpace=wrap;html=1;" parent="VFoh39alzI0I0gOJWxa4-20" vertex="1">
          <mxGeometry width="104" height="27" as="geometry">
            <mxRectangle width="104" height="27" as="alternateBounds" />
          </mxGeometry>
        </mxCell>
        <mxCell id="VFoh39alzI0I0gOJWxa4-22" value="&lt;font style=&quot;font-size: 14px;&quot; face=&quot;CMU Serif&quot;&gt;U+0044&lt;/font&gt;" style="connectable=0;recursiveResize=0;strokeColor=inherit;fillColor=none;align=center;whiteSpace=wrap;html=1;" parent="VFoh39alzI0I0gOJWxa4-20" vertex="1">
          <mxGeometry x="104" width="210" height="27" as="geometry">
            <mxRectangle width="210" height="27" as="alternateBounds" />
          </mxGeometry>
        </mxCell>
        <mxCell id="VFoh39alzI0I0gOJWxa4-17" style="shape=tableRow;horizontal=0;startSize=0;swimlaneHead=0;swimlaneBody=0;top=0;left=0;bottom=0;right=0;dropTarget=0;collapsible=0;recursiveResize=0;expand=0;fontStyle=0;fillColor=none;strokeColor=inherit;" parent="VFoh39alzI0I0gOJWxa4-1" vertex="1">
          <mxGeometry y="175" width="314" height="28" as="geometry" />
        </mxCell>
        <mxCell id="VFoh39alzI0I0gOJWxa4-18" value="&lt;font style=&quot;font-size: 14px;&quot; face=&quot;CMU Serif&quot;&gt;Dl&lt;/font&gt;" style="connectable=0;recursiveResize=0;strokeColor=inherit;fillColor=none;align=center;whiteSpace=wrap;html=1;" parent="VFoh39alzI0I0gOJWxa4-17" vertex="1">
          <mxGeometry width="104" height="28" as="geometry">
            <mxRectangle width="104" height="28" as="alternateBounds" />
          </mxGeometry>
        </mxCell>
        <mxCell id="VFoh39alzI0I0gOJWxa4-19" value="&lt;font style=&quot;font-size: 14px;&quot;&gt;&lt;font style=&quot;&quot; face=&quot;CMU Serif&quot;&gt;(U+0044)+&lt;/font&gt;&lt;font face=&quot;CMU Serif&quot;&gt;(U+006C)&lt;/font&gt;&lt;/font&gt;" style="connectable=0;recursiveResize=0;strokeColor=inherit;fillColor=none;align=center;whiteSpace=wrap;html=1;" parent="VFoh39alzI0I0gOJWxa4-17" vertex="1">
          <mxGeometry x="104" width="210" height="28" as="geometry">
            <mxRectangle width="210" height="28" as="alternateBounds" />
          </mxGeometry>
        </mxCell>
        <mxCell id="VFoh39alzI0I0gOJWxa4-14" style="shape=tableRow;horizontal=0;startSize=0;swimlaneHead=0;swimlaneBody=0;top=0;left=0;bottom=0;right=0;dropTarget=0;collapsible=0;recursiveResize=0;expand=0;fontStyle=0;fillColor=none;strokeColor=inherit;" parent="VFoh39alzI0I0gOJWxa4-1" vertex="1">
          <mxGeometry y="203" width="314" height="28" as="geometry" />
        </mxCell>
        <mxCell id="VFoh39alzI0I0gOJWxa4-15" value="&lt;font style=&quot;font-size: 14px;&quot; face=&quot;CMU Serif&quot;&gt;Dz&lt;/font&gt;" style="connectable=0;recursiveResize=0;strokeColor=inherit;fillColor=none;align=center;whiteSpace=wrap;html=1;" parent="VFoh39alzI0I0gOJWxa4-14" vertex="1">
          <mxGeometry width="104" height="28" as="geometry">
            <mxRectangle width="104" height="28" as="alternateBounds" />
          </mxGeometry>
        </mxCell>
        <mxCell id="VFoh39alzI0I0gOJWxa4-16" value="&lt;font style=&quot;font-size: 14px;&quot; face=&quot;CMU Serif&quot;&gt;(U+0044)+(U+007A)&lt;/font&gt;" style="connectable=0;recursiveResize=0;strokeColor=inherit;fillColor=none;align=center;whiteSpace=wrap;html=1;" parent="VFoh39alzI0I0gOJWxa4-14" vertex="1">
          <mxGeometry x="104" width="210" height="28" as="geometry">
            <mxRectangle width="210" height="28" as="alternateBounds" />
          </mxGeometry>
        </mxCell>
      </root>
    </mxGraphModel>
  </diagram>
</mxfile>
